<?xml version="1.0" encoding="utf-8"?>
<!-- Generator: Adobe Illustrator 27.1.0, SVG Export Plug-In . SVG Version: 6.00 Build 0)  -->
<svg version="1.1" id="Layer_1" xmlns="http://www.w3.org/2000/svg" xmlns:xlink="http://www.w3.org/1999/xlink" x="0px" y="0px"
	 viewBox="0 0 1920 1080" style="enable-background:new 0 0 1920 1080;" xml:space="preserve">
<style type="text/css">
	.st0{fill:#EE3824;}
	.st1{fill:#BA3824;}
</style>
<path class="st0" d="M1058.49,183.49h55.03v464.2H967.85v-300.4c-40.14,27.41-60.32,75.42-60.53,144.05v156.35H782.04V491.33
	c0-68.84-20.07-116.64-60.21-143.4v299.75H575.84v-464.2h55.03c91.93,0,163.36,34.1,214.3,102.29
	C895.02,217.59,966.12,183.49,1058.49,183.49z"/>
<path class="st1" d="M1261.12,519.32h-54.4v19.5h33.04v41.2h-33.04v21.21h54.4v46.44H1150.7V472.88h110.42V519.32z"/>
<path class="st1" d="M1410.17,472.88h16.27v174.81h-56.02v-16.7h-32.05v16.7h-56.89v-54.73c0-36.65,11.61-65.83,34.84-87.53
	C1339.56,483.73,1370.84,472.88,1410.17,472.88z M1338.87,582.47h31.55v-54.86C1351.46,538.02,1340.94,556.3,1338.87,582.47z"/>
<path class="st1" d="M1574,472.88v47.54h-34.65v127.27h-55.89V520.42h-34.65v-47.54H1574z"/>
<path class="st0" d="M540.15,686.32h257.25v221.81H283.47V98.78h256.68V686.32z"/>
<path class="st0" d="M948.93,788.13h-52.7v17.73h32.01v37.46h-32.01v19.29h52.7v42.23H841.96V745.9h106.97V788.13z"/>
<path class="st0" d="M1028.46,745.9c26.31,0,47.97,7.5,64.97,22.5c17,15,25.51,33.99,25.51,56.97c0,22.98-8.5,41.97-25.51,56.97
	c-17.01,15-38.66,22.5-64.97,22.5h-57.87V745.9H1028.46z M1024.85,860.39c11.63-0.29,20.94-3.58,27.91-9.86
	c6.98-6.28,10.47-14.65,10.47-25.1c0-10.45-3.49-18.82-10.47-25.1c-6.98-6.28-16.28-9.57-27.91-9.86V860.39z"/>
<path class="st0" d="M1283.78,810.41v73.04c-17.25,16.33-39.1,24.53-65.58,24.61c-25.27,0-46.16-7.83-62.69-23.5
	c-16.53-15.66-24.79-35.45-24.79-59.35c0-23.9,8.3-43.61,24.91-59.13s37.78-23.28,63.53-23.28c9.87,0,20.05,1.81,30.56,5.43v54.2
	c-8.02-7.09-17.45-10.64-28.28-10.64c-10.19,0-18.57,3.14-25.15,9.42c-6.58,6.28-9.87,14.34-9.87,24.16
	c0,10.57,3.21,19.19,9.63,25.88c6.42,6.69,14.72,10.03,24.91,10.03c5.05,0,9.91-0.85,14.56-2.55v-12.19h-25.87v-36.13H1283.78z"/>
<path class="st0" d="M1412.65,788.13h-52.7v17.73h32.01v37.46h-32.01v19.29h52.7v42.23h-106.97V745.9h106.97V788.13z"/>
<path class="st0" d="M1539.35,838.56c10.99,6.36,19.51,15.24,25.57,26.66c6.06,11.42,9.08,24.62,9.08,39.62h-55.11
	c0-11.67-2.77-21.56-8.3-29.65s-12.87-13.43-22.02-16.02v45.66h-54.27V745.9h66.3c19.25,0,34.71,4.77,46.38,14.3
	s17.51,22.17,17.51,37.91C1564.49,817.24,1556.11,830.73,1539.35,838.56z M1493.26,787.46h-4.69v28.6c2.49,0.89,5.01,1.37,7.58,1.44
	c5.05,0,9.16-1.37,12.33-4.1c3.17-2.73,4.75-6.32,4.75-10.75c0-4.66-1.77-8.35-5.29-11.08
	C1504.41,788.83,1499.52,787.46,1493.26,787.46z"/>
</svg>
